<?xml version="1.0" encoding="utf-8"?>
<!-- Generator: Adobe Illustrator 19.0.0, SVG Export Plug-In . SVG Version: 6.00 Build 0)  -->
<svg version="1.1" id="图层_1" xmlns="http://www.w3.org/2000/svg" xmlns:xlink="http://www.w3.org/1999/xlink" x="0px" y="0px"
	 viewBox="0 0 30 30" style="enable-background:new 0 0 30 30;" xml:space="preserve">
<style type="text/css">
	.st0{display:none;fill:none;}
	.st1{fill:none;stroke:#B8B8B8;stroke-width:2;}
	.st2{fill:#B8B8B8;}
	.st3{fill:none;stroke:#B8B8B8;stroke-width:2;stroke-linecap:round;}
</style>
<g id="icon-手机">
	<g id="icon-用户">
		<path id="矩形备份-47" class="st0" d="M4,0h22c2.2,0,4,1.8,4,4v22c0,2.2-1.8,4-4,4H4c-2.2,0-4-1.8-4-4V4C0,1.8,1.8,0,4,0z"/>
		<g id="编组" transform="translate(3.000000, 3.000000)">
			<polygon id="Fill-1" class="st0" points="0,24 24,24 24,0 0,0 			"/>
			<g transform="translate(4.000000, 2.000000)">
				<path id="Stroke-3" class="st1" d="M0,2v16c0,1.1,1,2,2.3,2h11.4c1.3,0,2.3-0.9,2.3-2V2c0-1.1-1-2-2.3-2H2.3C1,0,0,0.9,0,2z"/>
				<path id="Fill-5" class="st2" d="M9.9,16.1c0,1.1-0.9,2-2,2s-2-0.9-2-2s0.9-2,2-2S9.9,15,9.9,16.1"/>
				<line id="Stroke-7" class="st3" x1="4" y1="6" x2="12" y2="6"/>
				<line id="Stroke-9" class="st3" x1="4" y1="10" x2="12" y2="10"/>
			</g>
		</g>
	</g>
</g>
</svg>
