<?xml version="1.0" encoding="utf-8"?>
<!-- Generator: Adobe Illustrator 19.0.0, SVG Export Plug-In . SVG Version: 6.00 Build 0)  -->
<svg version="1.1" id="图层_1" xmlns="http://www.w3.org/2000/svg" xmlns:xlink="http://www.w3.org/1999/xlink" x="0px" y="0px"
	 viewBox="0 0 30 30" style="enable-background:new 0 0 30 30;" xml:space="preserve">
<style type="text/css">
	.st0{display:none;fill:none;}
	.st1{fill:none;stroke:#B8B8B8;stroke-width:2;}
	.st2{fill:#B8B8B8;}
</style>
<g id="icon-密码">
	<g>
		<path id="矩形备份-57" class="st0" d="M4,0h22c2.2,0,4,1.8,4,4v22c0,2.2-1.8,4-4,4H4c-2.2,0-4-1.8-4-4V4C0,1.8,1.8,0,4,0z"/>
		<polygon id="Fill-1" class="st0" points="3,27 27,27 27,3 3,3 		"/>
		<g id="编组" transform="translate(5.000000, 6.000000)">
			<path id="Stroke-3" class="st1" d="M16,5c0-3-2.7-5-6-5S4,2,4,5"/>
			<path id="Stroke-5" class="st1" d="M18,5H2C0.9,5,0,5.9,0,7v10c0,1.1,0.9,2,2,2h16c1.1,0,2-0.9,2-2V7C20,5.9,19.1,5,18,5z"/>
			<path id="Fill-7" class="st2" d="M11.9,12.1c0,1.1-0.9,2-2,2s-2-0.9-2-2s0.9-2,2-2S11.9,11,11.9,12.1"/>
		</g>
	</g>
</g>
</svg>
