<?xml version="1.0" standalone="no"?><!DOCTYPE svg PUBLIC "-//W3C//DTD SVG 1.1//EN" "http://www.w3.org/Graphics/SVG/1.1/DTD/svg11.dtd"><svg t="1614048946696" class="icon" viewBox="0 0 1024 1024" version="1.1" xmlns="http://www.w3.org/2000/svg" p-id="1154" xmlns:xlink="http://www.w3.org/1999/xlink" width="48" height="48"><defs><style type="text/css"></style></defs><path d="M755.2 1024h-486.4C119.734857 1024 0 899.145143 0 746.788571V274.724571C0 122.368 119.734857 0 268.8 0h483.913143C901.851429 0 1024 124.854857 1024 277.211429v472.064C1024 899.145143 904.265143 1024 755.2 1024zM268.8 74.898286C161.28 74.898286 70.948571 164.864 70.948571 277.211429v472.064c0 109.860571 87.990857 202.313143 197.924572 202.313142h483.913143c107.52 0 197.997714-89.965714 197.997714-202.313142V274.724571c0-109.860571-87.990857-202.313143-197.997714-202.313142H268.8v2.486857z" fill="#4381E5" p-id="1155"></path><path d="M660.553143 731.428571c-6.875429 0-13.677714-2.340571-22.820572-9.362285L416.036571 539.282286A33.645714 33.645714 0 0 1 402.285714 511.268571a33.645714 33.645714 0 0 1 13.750857-28.086857l221.622858-182.784a35.108571 35.108571 0 0 1 57.197714 28.16V696.32a36.790857 36.790857 0 0 1-20.553143 32.768C669.696 731.428571 665.161143 731.428571 660.48 731.428571z m-34.304-327.972571L493.714286 513.462857l132.608 110.153143V403.456zM365.714286 292.571429a36.571429 36.571429 0 0 1 36.571428 36.571428v365.714286a36.571429 36.571429 0 0 1-73.142857 0v-365.714286A36.571429 36.571429 0 0 1 365.714286 292.571429z" fill="#4381E5" p-id="1156"></path></svg>