<?xml version="1.0" standalone="no"?><!DOCTYPE svg PUBLIC "-//W3C//DTD SVG 1.1//EN" "http://www.w3.org/Graphics/SVG/1.1/DTD/svg11.dtd"><svg t="1614049043230" class="icon" viewBox="0 0 1024 1024" version="1.1" xmlns="http://www.w3.org/2000/svg" p-id="4524" xmlns:xlink="http://www.w3.org/1999/xlink" width="48" height="48"><defs><style type="text/css"></style></defs><path d="M755.2 1024h-486.4C119.734857 1024 0 899.145143 0 746.788571V274.724571C0 122.368 119.734857 0 268.8 0h483.913143C901.851429 0 1024 124.854857 1024 277.211429v472.064C1024 899.145143 904.265143 1024 755.2 1024zM268.8 74.898286C161.28 74.898286 70.948571 164.864 70.948571 277.211429v472.064c0 109.860571 87.990857 202.313143 197.924572 202.313142h483.913143c107.52 0 197.997714-89.965714 197.997714-202.313142V274.724571c0-109.860571-87.990857-202.313143-197.997714-202.313142H268.8v2.486857z" fill="#4381E5" p-id="4525"></path><path d="M363.446857 731.428571c6.802286 0 13.677714-2.340571 22.820572-9.362285l221.769142-182.784A33.645714 33.645714 0 0 0 621.714286 511.268571a33.645714 33.645714 0 0 0-13.750857-28.086857l-221.622858-182.784a35.108571 35.108571 0 0 0-57.197714 28.16V696.32c0 14.043429 9.142857 28.086857 20.553143 32.768A28.379429 28.379429 0 0 0 363.52 731.428571z m34.230857-327.972571L530.285714 513.462857 397.677714 623.689143V403.456zM658.285714 292.571429a36.571429 36.571429 0 0 0-36.571428 36.571428v365.714286a36.571429 36.571429 0 0 0 73.142857 0v-365.714286A36.571429 36.571429 0 0 0 658.285714 292.571429z" fill="#4381E5" p-id="4526"></path></svg>