<?xml version="1.0" encoding="utf-8"?>
<!-- Generator: Adobe Illustrator 19.0.0, SVG Export Plug-In . SVG Version: 6.00 Build 0)  -->
<svg version="1.1" id="图层_1" xmlns="http://www.w3.org/2000/svg" xmlns:xlink="http://www.w3.org/1999/xlink" x="0px" y="0px"
	 viewBox="0 0 30 30" style="enable-background:new 0 0 30 30;" xml:space="preserve">
<style type="text/css">
	.st0{display:none;fill:none;}
	.st1{fill:none;stroke:#B8B8B8;stroke-width:1.667;}
	.st2{fill:none;stroke:#B8B8B8;stroke-width:2;}
</style>
<g id="icon-用户">
	<g>
		<path id="矩形备份-47" class="st0" d="M4,0h22c2.2,0,4,1.8,4,4v22c0,2.2-1.8,4-4,4H4c-2.2,0-4-1.8-4-4V4C0,1.8,1.8,0,4,0z"/>
		<polygon id="Fill-1" class="st0" points="3,27 27,27 27,3 3,3 		"/>
		<g id="编组" transform="translate(5.000000, 3.000000)">
			<path id="Stroke-3" class="st1" d="M15,6c0,2.8-2.2,5-5,5S5,8.7,5,6s2.2-5,5-5S15,3.2,15,6z"/>
			<path id="Stroke-5" class="st2" d="M10,13C4.5,13,0,18,0,23h20C20,18,15.5,13,10,13z"/>
		</g>
	</g>
</g>
</svg>
